<?xml version="1.0" encoding="UTF-8" standalone="no"?>
<!DOCTYPE svg PUBLIC "-//W3C//DTD SVG 1.1//EN" "http://www.w3.org/Graphics/SVG/1.1/DTD/svg11.dtd">
<svg width="100%" height="100%" viewBox="0 0 847 750" version="1.1" xmlns="http://www.w3.org/2000/svg" xmlns:xlink="http://www.w3.org/1999/xlink" xml:space="preserve" xmlns:serif="http://www.serif.com/" style="fill-rule:evenodd;clip-rule:evenodd;stroke-linejoin:round;stroke-miterlimit:2;">
    <g transform="matrix(1,0,0,1,-723.603,-10.1434)">
        <g transform="matrix(1,0,0,1,-477.404,-581.969)">
            <g transform="matrix(0.906974,0,0,0.945766,857.631,65.0297)">
                <path d="M738.872,976.003C738.872,961.079 726.237,948.962 710.675,948.962C619.701,957.776 518.067,957.543 406.793,948.962C391.23,948.962 378.595,961.079 378.595,976.003L378.595,1030.09C378.595,1045.01 391.23,1057.13 406.793,1057.13L575.97,1045.72L710.675,1057.13C726.237,1057.13 738.872,1045.01 738.872,1030.09L738.872,976.003Z" style="fill:rgb(202,202,202);"/>
            </g>
        </g>
        <g transform="matrix(1,0,0,1,-477.404,-581.969)">
            <g transform="matrix(0.906974,0,0,0.945766,857.631,65.0297)">
                <path d="M738.872,976.003C738.872,961.079 726.237,948.962 710.675,948.962C627.133,957.056 433.873,950.898 433.873,950.898C521.686,969.179 512.689,1016.12 517.012,1049.7L575.97,1045.72L710.675,1057.13C726.237,1057.13 738.872,1045.01 738.872,1030.09L738.872,976.003Z" style="fill:rgb(177,177,177);"/>
            </g>
        </g>
        <g transform="matrix(1,0,0,1,-477.404,-581.969)">
            <g transform="matrix(0.776465,0.340167,-0.340167,0.776465,1135.54,-49.9548)">
                <circle cx="1063.67" cy="903.846" r="386.487" style="fill:rgb(235,235,235);"/>
            </g>
        </g>
        <g transform="matrix(1,0,0,1,-477.404,-581.969)">
            <g transform="matrix(0.686239,0.300639,-0.300639,0.686239,1195.79,73.6402)">
                <circle cx="1063.67" cy="903.846" r="386.487" style="fill:rgb(187,255,196);"/>
            </g>
        </g>
        <g transform="matrix(1,0,0,1,-477.404,-581.969)">
            <g transform="matrix(-0.966889,-0.510054,0.514853,-0.975988,2088.99,2571.75)">
                <path d="M1281.69,1066.91C1279.63,1138.86 1248.74,1203.1 1200.45,1249.22C1152.88,1294.67 1088.26,1322.37 1017.37,1320.83C947.37,1320.23 884.715,1290.72 838.822,1244.79C793.101,1199.02 763.652,1136.64 762.789,1066.91C761.279,996.223 788.695,931.735 833.857,884.19C880.146,835.458 944.918,804.421 1017.37,802.585C943.44,800.712 875.787,829.283 826.259,876.768C776.163,924.799 744.884,992.132 743.286,1066.91C742.349,1142.63 771.829,1212.03 821.293,1261.91C871.16,1312.19 941.027,1342.31 1017.37,1341.66C1092.84,1340.02 1160.78,1308.32 1208.9,1257.47C1255.81,1207.91 1283.81,1140.47 1281.69,1066.91Z" style="fill:rgb(202,202,202);"/>
            </g>
        </g>
        <g transform="matrix(1,0,0,1,-477.404,-581.969)">
            <g transform="matrix(0.903534,0,0,0.903534,1124.48,177.19)">
                <path d="M731.543,593.659C914.852,673.966 998.477,887.989 918.169,1071.3C837.862,1254.61 623.839,1338.23 440.53,1257.92C257.22,1177.62 173.596,963.595 253.903,780.286C334.21,596.976 548.234,513.352 731.543,593.659ZM714.635,632.253C876.643,703.229 950.551,892.382 879.575,1054.39C808.6,1216.4 619.446,1290.31 457.438,1219.33C295.429,1148.36 221.522,959.202 292.497,797.194C363.473,635.185 552.626,561.278 714.635,632.253Z" style="fill:rgb(235,235,235);"/>
            </g>
        </g>
        <g transform="matrix(1,0,0,1,-477.404,-581.969)">
            <g transform="matrix(0.886513,-0.174553,0.174553,0.886513,564.67,243.022)">
                <path d="M1281.69,1066.91C1280.4,1139.36 1249.98,1204.49 1201.61,1251.16C1153.93,1297.17 1088.78,1325.1 1017.37,1323.82C946.973,1322.56 883.716,1292.91 838.368,1245.91C793.68,1199.6 766.644,1136.28 767.885,1066.91C769.106,998.568 797.986,937.193 843.617,893.165C888.565,849.796 950.046,823.652 1017.37,824.855C1029.66,824.855 1039.64,814.876 1039.64,802.585C1039.64,790.294 1029.66,780.315 1017.37,780.315C938.779,781.72 867.998,814.449 817.372,866.919C767.405,918.705 736.804,989.351 738.191,1066.91C739.559,1143.45 771.518,1212.35 822.621,1261.66C873.039,1310.31 941.852,1340.02 1017.37,1338.66C1091.86,1337.33 1158.88,1306.14 1206.86,1256.41C1254.19,1207.36 1283.01,1140.38 1281.69,1066.91Z" style="fill:rgb(116,173,124);fill-opacity:0.4;"/>
            </g>
        </g>
        <g transform="matrix(1,0,0,1,-477.404,-581.969)">
            <g transform="matrix(-0.0850524,0.690843,-0.690843,-0.0850524,2475.39,402.139)">
                <path d="M1281.69,1066.91C1280.02,1139.21 1249.35,1204.06 1200.83,1250.38C1153.2,1295.85 1088.33,1323.25 1017.37,1321.61C947.728,1319.99 885.333,1290.3 840.715,1243.57C796.949,1197.72 770.725,1135.22 772.31,1066.91C773.864,999.934 802.575,939.991 847.529,897.076C891.59,855.014 951.717,829.97 1017.37,831.493C1033.32,831.493 1046.28,818.54 1046.28,802.585C1046.28,786.63 1033.32,773.677 1017.37,773.677C937.093,775.54 864.892,809.131 813.46,863.007C762.88,915.991 731.933,987.97 733.765,1066.91C735.567,1144.53 768.182,1214.28 820.274,1264.01C871.473,1312.88 941.082,1342.65 1017.37,1340.88C1092.32,1339.14 1159.62,1307.5 1207.64,1257.19C1254.82,1207.78 1283.4,1140.54 1281.69,1066.91Z" style="fill:rgb(116,173,124);"/>
            </g>
        </g>
        <g transform="matrix(1,0,0,1,-477.404,-581.969)">
            <g transform="matrix(-0.464873,0.0852541,-0.0832645,-0.454024,2213.57,1412.4)">
                <path d="M1281.69,1066.91C1279.25,1139.44 1247.65,1204.06 1198.2,1249.66C1150.79,1293.38 1086.91,1319.17 1017.37,1316.71C949.751,1314.32 889.505,1284.87 846.384,1239.2C804.042,1194.36 779.179,1133.31 781.421,1066.91C783.195,1014.38 802.784,966.798 833.581,928.937C864.022,891.514 906.34,864.645 954.287,852.481C964.487,849.894 974.971,848.208 985.655,847.077C996.045,845.977 1006.62,845.797 1017.37,846.177C1040.86,846.177 1059.94,826.644 1059.94,802.585C1059.94,778.526 1040.86,758.993 1017.37,758.993C1002.72,759.511 988.359,760.849 974.331,763.346C959.974,765.902 945.954,769.257 932.385,773.738C870.085,794.313 816.466,833.697 779.568,886.026C743.503,937.173 722.383,999.657 724.655,1066.91C727.38,1147.6 761.801,1219.83 816.815,1270.57C869.469,1319.12 940.137,1348.51 1017.37,1345.77C1092.66,1343.11 1160.04,1310.97 1208.06,1260.11C1255.61,1209.75 1284.21,1141.47 1281.69,1066.91Z" style="fill:rgb(116,173,124);"/>
            </g>
        </g>
        <g transform="matrix(1,0,0,1,-477.404,-581.969)">
            <g transform="matrix(0.901821,0,0,0.901821,193.694,-153.689)">
                <circle cx="1803.75" cy="1379.56" r="24.931" style="fill:rgb(116,173,124);"/>
                <path d="M1804.39,1354.63C1817.86,1354.98 1828.68,1366.01 1828.68,1379.56C1828.68,1393.32 1817.51,1404.49 1803.75,1404.49C1789.99,1404.49 1778.82,1393.32 1778.82,1379.56C1778.82,1365.8 1789.99,1354.63 1803.75,1354.63M1803.75,1354.63C1810.48,1355.03 1816.38,1358.09 1820.56,1362.75C1824.54,1367.2 1826.85,1373.13 1826.53,1379.56C1826.3,1385.75 1823.51,1391.2 1819.35,1395.16C1815.28,1399.03 1809.8,1401.45 1803.75,1401.37C1797.67,1401.5 1792.14,1399.14 1788.03,1395.27C1783.82,1391.3 1781.01,1385.8 1780.77,1379.56C1780.47,1373.08 1782.81,1367.12 1786.85,1362.66C1791.06,1358.01 1797,1354.98 1803.75,1354.63Z" style="fill:rgb(116,173,124);"/>
            </g>
        </g>
        <g transform="matrix(1,0,0,1,-477.404,-581.969)">
            <g transform="matrix(0.72034,-0.167321,0.167321,0.72034,786.457,629.534)">
                <path d="M1155.53,730.675C1178.48,732.616 1282.03,621.143 1287.35,601.623C1322.57,472.509 1317.31,384.34 1446.15,337.49C1458.13,333.133 1564.07,306.813 1570.41,313.15C1572.42,315.168 1552.03,332.625 1551.42,333.852C1542.23,352.222 1548.41,416.454 1545.7,438.128C1533.15,538.483 1538.55,559.472 1439.74,621.88C1393.94,650.805 1334.57,669.697 1284.74,691.056C1254.02,704.221 1155.53,730.675 1155.53,730.675Z" style="fill:rgb(37,116,48);"/>
            </g>
        </g>
        <g transform="matrix(1,0,0,1,-477.404,-581.969)">
            <g transform="matrix(0.903534,0,0,0.903534,1124.48,177.19)">
                <path d="M799.435,768C804.863,755.332 811.493,734.862 818.152,707.712C822.136,691.466 826.18,672.842 829.92,652.073C832.045,640.273 833.994,627.768 835.917,614.639C837.975,599.71 844.552,584.142 852.581,569.698C868.7,540.701 890.825,516.28 895.768,511.197C890.667,516.159 867.676,539.977 850.82,568.692C842.287,583.226 835.377,599.024 832.987,614.207C831.039,627.303 828.943,639.754 826.919,651.546C823.359,672.296 819.785,690.961 816.218,707.264C810.252,734.522 804.453,755.191 799.435,768Z" style="fill:rgb(187,255,196);"/>
            </g>
        </g>
        <g transform="matrix(1,0,0,1,-477.404,-581.969)">
            <g transform="matrix(0.739517,0,0,0.739517,886.554,422.16)">
                <path d="M1155.53,730.675C1178.48,732.616 1282.03,621.143 1287.35,601.623C1322.57,472.509 1317.31,384.34 1446.15,337.49C1458.13,333.133 1564.07,306.813 1570.41,313.15C1572.42,315.168 1552.03,332.625 1551.42,333.852C1542.23,352.222 1548.41,416.454 1545.7,438.128C1533.15,538.483 1538.55,559.472 1439.74,621.88C1393.94,650.805 1334.57,669.697 1284.74,691.056C1254.02,704.221 1155.53,730.675 1155.53,730.675Z" style="fill:rgb(68,142,78);"/>
            </g>
        </g>
        <g transform="matrix(1,0,0,1,-477.404,-581.969)">
            <g transform="matrix(0.903534,0,0,0.903534,1124.48,177.19)">
                <path d="M812.992,797.572C813.638,794.614 830.67,788.699 851.953,774.003C862.853,766.476 874.882,756.674 886.344,743.775C897.316,731.426 907.827,716.273 916.297,697.64C921.043,687.201 925.074,675.641 928.307,662.924C935.642,633.377 943.678,613.208 951.155,599.05C963.591,575.499 974.558,568.604 978.545,563.134C974.39,568.518 963.131,575.109 950.058,598.454C942.184,612.516 933.69,632.66 925.66,662.237C922.338,674.744 918.132,686.051 913.453,696.347C905.111,714.705 895.024,729.752 884.443,742.116C851.485,780.625 813.834,793.095 812.992,797.572Z" style="fill:rgb(187,255,196);"/>
            </g>
        </g>
        <g transform="matrix(1,0,0,1,-477.404,-581.969)">
            <g transform="matrix(0.903534,0,0,0.903534,754.067,250.306)">
                <path d="M980.69,757.949C980.527,756.894 979.896,757.07 979.127,757.703C978.012,758.622 976.599,760.647 976.101,761.193C973.145,764.436 969.975,768.685 968.379,773.306C967.19,776.749 967.054,780.33 968.202,783.925C972.504,797.389 977.981,807.781 982.311,819.912C984.789,826.856 986.669,834.281 987.764,843.297C990.422,865.202 981.766,882.939 968.337,895.362C955.219,907.497 936.614,912.599 918.951,910.647C906.661,910.469 896.539,920.303 896.361,932.593C896.184,944.883 906.017,955.005 918.307,955.183C946.773,952.865 974.678,939.338 991.667,916.183C1006.85,895.49 1014.85,868.892 1005.34,839.431C1003,832.171 1000.42,825.972 997.431,820.296C990.125,806.431 981.391,796.251 973.424,781.687C972.134,779.328 971.817,776.793 972.182,774.224C972.816,769.767 975.003,765.397 977.108,761.948C977.49,761.321 978.48,759.077 979.394,757.97C979.913,757.341 980.395,757.126 980.69,757.949Z" style="fill:rgb(116,173,124);"/>
            </g>
        </g>
        <g transform="matrix(1,0,0,1,-477.404,-581.969)">
            <g transform="matrix(0.903534,0,0,0.903534,754.067,250.306)">
                <path d="M918.647,820.923L933.453,839.799C938.18,845.03 945.298,848.382 953.307,850.809C964.298,854.14 976.683,854.755 986.611,854.348C1015.96,853.145 1024.14,836.879 1052.45,825.855C1059.06,823.283 1066.94,821.768 1076.98,820.399C1088.85,817.206 1095.9,804.977 1092.7,793.108C1089.51,781.238 1077.28,774.194 1065.41,777.387C1052.52,782.691 1042.69,787.695 1034.79,793.406C1022.25,802.47 1014.65,811.089 1006.93,819.215C1000.72,825.755 994.909,831.884 983.391,835.392C975.296,837.857 964.96,840.034 955.188,839.646C948.431,839.378 942.15,838.335 937.389,835.207L918.647,820.923Z" style="fill:rgb(116,173,124);"/>
            </g>
        </g>
        <g transform="matrix(1,0,0,1,-477.404,-581.969)">
            <g transform="matrix(0.903534,0,0,0.903534,1124.48,177.19)">
                <path d="M893.142,719.317C894.27,716.042 894.667,712.59 894.461,708.989C894.331,706.697 893.959,704.377 893.391,702.06C892.979,700.384 892.463,698.712 891.847,697.074C891.238,695.455 890.526,693.876 889.783,692.322C887.415,687.376 884.739,682.786 882.903,678.526C883.538,681.258 884.373,684.166 885.354,687.208C886.248,689.981 887.18,692.836 888.147,695.712C888.774,697.575 889.402,699.44 890.019,701.291C890.643,703.164 891.263,705.009 891.78,706.857C892.964,711.082 893.696,715.207 893.142,719.317Z" style="fill:rgb(187,255,196);"/>
            </g>
        </g>
        <g transform="matrix(1,0,0,1,-477.404,-581.969)">
            <g transform="matrix(0.903534,0,0,0.903534,1124.48,177.19)">
                <path d="M911.382,644.585C910.499,644.186 909.766,643.64 909.114,643.002C906.428,640.372 905.146,636.286 901.716,634.313C900.784,633.785 899.431,633.499 897.851,633.369C894.765,633.116 890.763,633.464 887.716,633.321C886.323,633.256 885.163,633.216 884.637,632.663C883.328,631.344 882.437,629.457 881.727,627.259C880.802,624.391 880.248,620.993 879.949,617.398C879.158,607.862 880.104,597.075 880.927,591.586C879.557,597.038 877.346,607.821 877.415,617.512C877.443,621.382 877.845,625.078 878.768,628.177C879.585,630.921 880.851,633.193 882.486,634.814C883.328,635.617 884.888,636.104 886.9,636.146C889.018,636.19 891.698,635.878 894.26,635.637C896.954,635.384 899.496,635.148 900.973,635.799C904.44,637.287 906.038,641.09 908.883,643.27C909.622,643.836 910.436,644.294 911.382,644.585Z" style="fill:rgb(187,255,196);"/>
            </g>
        </g>
        <g transform="matrix(1,0,0,1,-477.404,-581.969)">
            <g transform="matrix(0.903534,0,0,0.903534,1124.48,177.19)">
                <path d="M937.997,599.324C938.276,598.542 938.328,597.54 938.262,596.357C938.166,594.628 937.858,592.612 937.638,590.545C937.444,588.729 937.319,586.915 937.759,585.301C937.883,584.698 938.131,584.117 938.407,583.525C938.836,582.608 939.368,581.688 939.97,580.766C941.607,578.258 943.6,575.789 944.704,573.453C945.299,572.19 945.618,570.998 945.473,569.851C945.195,572.186 942.845,574.219 940.431,576.503C938.962,577.894 937.475,579.338 936.388,580.912C935.559,582.111 935.019,583.405 934.746,584.698C934.533,586.239 934.626,587.887 935.007,589.529C935.245,590.559 935.566,591.571 935.931,592.559C936.925,595.259 938.104,597.631 937.997,599.324Z" style="fill:rgb(187,255,196);"/>
            </g>
        </g>
        <g transform="matrix(1,0,0,1,-477.404,-581.969)">
            <g transform="matrix(0.903534,0,0,0.903534,1124.48,177.19)">
                <path d="M835.328,750.798C835.37,751.706 834.273,748.946 831.934,746.725C830.979,745.818 829.822,745.073 828.516,744.584C827.619,744.286 825.865,744.033 824.378,743.613C823.8,743.449 823.218,743.399 823.048,743.032C821.919,741.068 821.726,739.167 821.986,737.289C822.437,734.036 824.072,730.89 825.601,727.924C823.325,730.626 820.771,733.461 819.717,736.775C818.962,739.149 819.076,741.696 820.251,744.43C820.696,745.274 821.63,745.988 822.92,746.322C824.585,746.753 826.854,746.638 827.955,746.83C829.081,746.979 830.119,747.391 831.055,747.917C833.788,749.453 835.601,751.638 835.328,750.798Z" style="fill:rgb(187,255,196);"/>
            </g>
        </g>
        <g transform="matrix(1,0,0,1,-477.404,-581.969)">
            <g transform="matrix(0.903534,0,0,0.903534,1124.48,177.19)">
                <path d="M924.03,739.718C923.568,736.286 925.828,734.455 929.333,732.976C931.935,731.878 935.202,731.043 938.559,729.929C940.228,729.375 941.91,728.741 943.528,727.998C946.071,726.829 948.463,725.409 950.468,723.69C954.099,720.576 956.474,716.521 956.011,710.799C955.711,714.303 954.406,716.924 952.507,719.041C950.201,721.611 946.959,723.269 943.494,724.703C942.373,725.167 941.234,725.615 940.098,726.062C938.937,726.519 937.783,726.978 936.653,727.441C934.147,728.468 931.761,729.478 929.739,730.589C925.399,732.975 922.687,735.671 924.03,739.718Z" style="fill:rgb(187,255,196);"/>
            </g>
        </g>
        <g transform="matrix(1,0,0,1,-477.404,-581.969)">
            <g transform="matrix(0.903534,0,0,0.903534,1124.48,177.19)">
                <path d="M954.725,662.891C955.074,659.356 956.577,657.18 958.63,655.455C959.605,654.636 960.716,653.978 961.884,653.301C963.033,652.635 964.235,651.981 965.456,651.31C966.95,650.49 968.432,649.628 969.87,648.706C972.164,647.236 974.22,645.626 975.77,643.618C973.039,645.763 969.454,646.775 965.922,648.04C964.746,648.461 963.587,648.902 962.491,649.437C961.315,650.011 960.212,650.679 959.228,651.44C957.78,652.56 956.559,653.848 955.727,655.396C954.623,657.45 954.173,659.846 954.725,662.891Z" style="fill:rgb(187,255,196);"/>
            </g>
        </g>
        <g transform="matrix(1,0,0,1,-477.404,-581.969)">
            <g transform="matrix(0.903534,0,0,0.903534,1124.48,177.19)">
                <path d="M816.128,589.652C816.686,588.518 816.393,587.583 815.675,586.718C814.63,585.459 812.599,584.407 810.67,583.267C809.065,582.318 807.507,581.384 807.147,579.954C806.705,578.463 806.663,576.77 806.694,574.96C806.722,573.278 806.844,571.499 807.061,569.677C807.382,566.979 807.84,564.218 808.333,561.58C808.903,558.535 809.442,555.708 809.794,553.385C809.011,555.601 807.882,558.253 806.816,561.163C805.868,563.751 804.952,566.486 804.337,569.208C803.898,571.152 803.603,573.082 803.574,574.909C803.54,577.072 803.891,579.081 804.537,580.824C805.203,582.426 806.752,583.642 808.724,584.485C811.02,585.467 813.746,586.039 815.212,587.194C815.992,587.809 816.387,588.566 816.128,589.652Z" style="fill:rgb(187,255,196);"/>
            </g>
        </g>
        <g transform="matrix(1,0,0,1,-477.404,-581.969)">
            <g transform="matrix(0.903534,0,0,0.903534,1124.48,177.19)">
                <path d="M859.303,525.733C859.438,523.317 859.712,521.635 859.794,520.116C859.841,519.256 859.819,518.511 859.749,517.81C859.692,517.24 859.595,516.704 859.423,516.201C859.006,514.976 858.356,513.872 857.195,512.709C856.138,511.649 854.716,510.646 852.605,509.256C853.411,510.512 853.981,511.527 854.519,512.46C855.233,513.698 855.654,514.662 855.999,515.579C856.231,516.196 856.358,516.779 856.516,517.387C856.676,518.003 856.851,518.633 857.038,519.354C857.238,520.126 857.473,520.94 857.796,521.912C858.174,523.048 858.66,524.217 859.303,525.733Z" style="fill:rgb(187,255,196);"/>
            </g>
        </g>
        <g transform="matrix(1,0,0,1,-477.404,-581.969)">
            <g transform="matrix(0.903534,0,0,0.903534,1124.48,177.19)">
                <path d="M801.729,661.5C801.772,661.728 801.727,661.719 801.624,661.56C801.182,660.882 800.011,658.339 799.564,657.8C798,655.967 796.72,652.88 794.986,650.525C794.102,649.324 793.078,648.349 791.947,647.697C791.161,647.258 790.092,647.196 788.951,647.41C787.962,647.595 786.91,648.008 786.024,648.423C786.012,648.355 786,648.287 785.988,648.219C785.867,647.558 785.707,646.909 785.535,646.436C784.61,644.05 783.174,642.124 781.63,640.328C780.158,638.616 778.625,637.035 777.604,635.083C776.447,632.87 775.935,630.245 776.862,626.494C775.254,630.283 775.397,633.148 776.274,635.659C777.046,637.869 778.414,639.772 779.761,641.758C780.924,643.473 782.075,645.232 782.68,647.387L783.216,651C783.265,651.546 783.597,652.026 784.09,652.264C784.584,652.502 785.167,652.463 785.624,652.16C785.624,652.16 787.323,650.984 789.022,650.378C789.668,650.148 790.29,649.869 790.757,650.077C791.67,650.468 792.497,651.152 793.289,651.964C795.327,654.055 797.118,656.855 798.947,658.417C799.466,658.847 801.016,661.053 801.555,661.615C801.781,661.85 801.875,661.872 801.729,661.5Z" style="fill:rgb(187,255,196);"/>
            </g>
        </g>
        <g transform="matrix(1,0,0,1,-477.404,-581.969)">
            <g transform="matrix(0.903534,0,0,0.903534,1124.48,177.19)">
                <path d="M793.977,709.376C794.179,708.181 793.849,707.105 793.209,705.983C792.109,704.054 790.18,702.086 788.44,699.499C787.598,698.248 786.741,696.881 786.207,695.17C785.68,693.921 785.582,692.362 785.484,690.738C785.379,688.998 785.29,687.234 784.928,685.649C784.567,684.073 783.971,682.726 782.79,681.819C783.633,682.917 783.836,684.263 783.81,685.765C783.777,687.653 783.312,689.7 783.102,691.68C782.932,693.282 782.988,694.807 783.324,696.131C783.992,698.028 784.87,699.642 785.964,700.955C787.094,702.31 788.368,703.361 789.574,704.3C791.79,706.026 793.715,707.243 793.977,709.376Z" style="fill:rgb(187,255,196);"/>
            </g>
        </g>
        <g transform="matrix(1,0,0,1,-477.404,-581.969)">
            <g transform="matrix(0.903534,0,0,0.903534,1124.48,177.19)">
                <path d="M881.647,770.847C881.531,771.205 881.564,771.371 881.631,771.461C881.726,771.591 881.954,771.559 882.244,771.618C883.628,771.875 884.886,772.21 886.193,772.477C887.567,772.758 888.88,773.007 890.194,773.147C891.133,773.247 892.059,773.29 892.963,773.236C893.929,773.178 894.864,773.012 895.771,772.765C897.323,772.341 898.766,771.726 900.112,770.754C901.292,769.903 902.33,768.847 903.32,767.442C901.305,768.889 899.381,769.521 897.378,769.867C896.233,770.064 895.101,770.081 893.919,770.112C893.147,770.132 892.364,770.141 891.564,770.172C890.37,770.218 889.158,770.287 887.897,770.389C886.046,770.54 884.221,770.824 882.244,771.17C882.024,771.214 881.887,771.357 881.782,771.295C881.708,771.251 881.672,771.132 881.647,770.847Z" style="fill:rgb(187,255,196);"/>
            </g>
        </g>
        <g transform="matrix(1,0,0,1,-477.404,-581.969)">
            <g transform="matrix(0.903534,0,0,0.903534,1124.48,177.19)">
                <path d="M773.385,748.183C773.534,748.015 773.472,748.129 773.442,748.391C773.386,748.899 773.141,749.696 772.95,750.878C772.869,751.376 772.801,751.879 772.784,752.446C772.769,752.956 772.767,753.486 772.868,754.007C773.035,754.873 773.366,755.675 773.732,756.426C774.5,758 775.345,759.087 776.203,759.538C775.721,758.644 775.919,757.108 775.983,755.214C775.999,754.739 776.023,754.268 775.976,753.784C775.929,753.304 775.831,752.83 775.705,752.378C775.455,751.48 775.131,750.727 774.829,750.038C774.038,748.234 773.387,747.402 773.385,748.183Z" style="fill:rgb(187,255,196);"/>
            </g>
        </g>
    </g>
</svg>
