<svg xmlns="http://www.w3.org/2000/svg" baseProfile="tiny" viewBox="0 0 103.9 104.2"><path fill="#fff" d="M0 99.5V4.6C0 2.1 2.1 0 4.6 0h94.6c2.6 0 4.6 2.1 4.6 4.6v94.9c0 2.6-2.1 4.6-4.6 4.6H4.6c-2.5.1-4.6-2-4.6-4.6zm64.4-22.7l-.3-1-19.8-51.3c-.3-.7-.6-.9-1.3-.9H32.3c-.8 0-1.1.2-1.4.9L11.1 75.7l-.3 1c3.4 0 6.8.1 10.1 0 1.8 0 3-1.1 3.6-2.8l2.8-8.2c.2-.7.6-1 1.4-1h18.1c.7 0 1.1.2 1.3.9l2.8 8.2c.5 1.6 1.6 2.7 3.3 2.8 3.3.3 6.7.2 10.2.2zM93 87.7v-7H64.4v7H93z"/><path d="M64.4 76.8c-3.5 0-7 .1-10.4 0-1.7-.1-2.7-1.2-3.3-2.8l-2.8-8.2c-.2-.7-.6-.9-1.3-.9H28.5c-.8 0-1.1.2-1.4 1l-2.8 8.2c-.6 1.7-1.8 2.7-3.6 2.8-3.3.1-6.6 0-10.1 0 .1-.4.2-.7.3-1L31 24.6c.3-.7.6-.9 1.4-.9h10.7c.7 0 1.1.2 1.3.9l19.8 51.3c.1.2.1.5.2.9zM37.7 35.2l-7.2 21.3h14.3l-7.1-21.3zM93 87.7H64.4v-7H93v7z"/><path fill="#fff" d="M37.7 35.2l7.1 21.3H30.5l7.2-21.3z"/></svg>