<svg xmlns:mydata="http://www.w3.org/2000/svg" mydata:contrastcolor="ffffff" mydata:template="BlackAndHighlightColorHex1" mydata:presentation="2.5" mydata:layouttype="undefined" mydata:specialfontid="undefined" mydata:id1="901" mydata:id2="096" mydata:companyname="Hypertext Transfer Protocol" mydata:companytagline="" version="1.1" xmlns="http://www.w3.org/2000/svg" xmlns:xlink="http://www.w3.org/1999/xlink" viewBox="0 35 550 400"><g fill="#426da9" fill-rule="none" stroke="none" stroke-width="1" stroke-linecap="butt" stroke-linejoin="miter" stroke-miterlimit="10" stroke-dasharray="" stroke-dashoffset="0" font-family="none" font-weight="none" font-size="none" text-anchor="none" style="mix-blend-mode: normal"><g data-paper-data="{&quot;isGlobalGroup&quot;:true,&quot;bounds&quot;:{&quot;x&quot;:124.11603498982973,&quot;y&quot;:115,&quot;width&quot;:301.7679300203406,&quot;height&quot;:240}}"><g data-paper-data="{&quot;textHeightFactor&quot;:0.4720099891868248,&quot;isSecondaryText&quot;:true}" fill-rule="nonzero"><path d="M141.92147,354.81665h1.43857v-8.49036h2.43992v-1.38215h-6.3184v1.38215h2.43992z" data-paper-data="{&quot;glyphName&quot;:&quot;T&quot;,&quot;glyphIndex&quot;:0,&quot;firstGlyphOfWord&quot;:true,&quot;word&quot;:1}"></path><path d="M159.2222,351.29076c0.7898,-0.409 1.65012,-1.43857 1.65012,-2.84892c0,-2.03092 -1.60781,-3.49769 -3.70924,-3.49769h-3.20151v9.87251h1.45267v-2.89123h1.74884c1.43857,0 2.24247,1.39625 2.24247,2.48223v0.409h1.46677v-0.409c0,-1.1847 -0.42311,-2.41171 -1.65012,-3.11689zM159.37733,348.44183c0,1.10008 -0.87442,2.21426 -2.04502,2.21426h-1.91809v-4.44263h1.91809c1.1706,0 2.04502,1.08598 2.04502,2.22837z" data-paper-data="{&quot;glyphName&quot;:&quot;R&quot;,&quot;glyphIndex&quot;:1,&quot;word&quot;:1}"></path><path d="M174.66338,352.34853l1.01546,2.46813h1.52319l-4.17466,-10.05585l-4.17466,10.05585h1.52319l1.01546,-2.46813zM174.18386,351.0792h-2.31299l1.15649,-2.94765z" data-paper-data="{&quot;glyphName&quot;:&quot;A&quot;,&quot;glyphIndex&quot;:2,&quot;word&quot;:1}"></path><path d="M185.53182,354.81665h1.35394v-7.44669l6.37482,7.61593v-10.04175h-1.35394v6.21968l-5.04908,-6.21968h-1.32574z" data-paper-data="{&quot;glyphName&quot;:&quot;N&quot;,&quot;glyphIndex&quot;:3,&quot;word&quot;:1}"></path><path d="M204.66851,349.16112c-0.7898,0 -1.43857,-0.64876 -1.43857,-1.43857c0,-0.7898 0.64876,-1.43857 1.43857,-1.43857h2.97586v-1.33984h-3.1451c-1.52319,0 -2.73609,1.24112 -2.73609,2.7502c0,1.50908 1.21291,2.82072 2.73609,2.82072h1.36805c0.84621,0 1.52319,0.60645 1.52319,1.45267c0,0.83211 -0.67697,1.43857 -1.52319,1.43857h-3.56821v1.41036h3.82207c1.53729,0 2.79251,-1.31163 2.79251,-2.86303c0,-1.52319 -1.24112,-2.79251 -2.79251,-2.79251z" data-paper-data="{&quot;glyphName&quot;:&quot;S&quot;,&quot;glyphIndex&quot;:4,&quot;word&quot;:1}"></path><path d="M217.05736,354.81665h1.43857v-4.52725h4.11825v-1.35394h-4.11825v-2.60916h4.3157v-1.38215h-5.75426z" data-paper-data="{&quot;glyphName&quot;:&quot;F&quot;,&quot;glyphIndex&quot;:5,&quot;word&quot;:1}"></path><path d="M231.20348,354.81665h5.83888v-1.41036h-4.40032v-3.34255h4.11825v-1.35394h-4.11825v-2.38351h4.3157v-1.38215h-5.75426z" data-paper-data="{&quot;glyphName&quot;:&quot;E&quot;,&quot;glyphIndex&quot;:6,&quot;word&quot;:1}"></path><path d="M250.78021,351.29076c0.7898,-0.409 1.65012,-1.43857 1.65012,-2.84892c0,-2.03092 -1.60781,-3.49769 -3.70924,-3.49769h-3.20151v9.87251h1.45267v-2.89123h1.74884c1.43857,0 2.24247,1.39625 2.24247,2.48223v0.409h1.46677v-0.409c0,-1.1847 -0.42311,-2.41171 -1.65012,-3.11689zM250.93535,348.44183c0,1.10008 -0.87442,2.21426 -2.04502,2.21426h-1.91809v-4.44263h1.91809c1.1706,0 2.04502,1.08598 2.04502,2.22837z" data-paper-data="{&quot;glyphName&quot;:&quot;R&quot;,&quot;glyphIndex&quot;:7,&quot;lastGlyphOfWord&quot;:true,&quot;word&quot;:1}"></path><path d="M276.72199,348.23028c0,-1.80526 -1.45267,-3.28613 -3.25793,-3.28613h-3.48358v9.87251h1.43857v-3.31434h2.04502c1.80526,0 3.25793,-1.45267 3.25793,-3.27203zM275.22701,348.23028c0,1.1706 -0.70518,2.00271 -1.9604,2.00271h-1.84757v-4.01952h1.84757c1.10008,0 1.9604,0.90263 1.9604,2.01681z" data-paper-data="{&quot;glyphName&quot;:&quot;P&quot;,&quot;glyphIndex&quot;:8,&quot;firstGlyphOfWord&quot;:true,&quot;word&quot;:2}"></path><path d="M290.31188,351.29076c0.7898,-0.409 1.65012,-1.43857 1.65012,-2.84892c0,-2.03092 -1.60781,-3.49769 -3.70924,-3.49769h-3.20151v9.87251h1.45267v-2.89123h1.74884c1.43857,0 2.24247,1.39625 2.24247,2.48223v0.409h1.46677v-0.409c0,-1.1847 -0.42311,-2.41171 -1.65012,-3.11689zM290.46702,348.44183c0,1.10008 -0.87442,2.21426 -2.04502,2.21426h-1.91809v-4.44263h1.91809c1.1706,0 2.04502,1.08598 2.04502,2.22837z" data-paper-data="{&quot;glyphName&quot;:&quot;R&quot;,&quot;glyphIndex&quot;:9,&quot;word&quot;:2}"></path><path d="M300.57067,349.8945c0,2.82072 2.25657,5.1055 5.06319,5.1055c2.80661,0 5.06319,-2.28478 5.06319,-5.1055c0,-2.83482 -2.25657,-5.1196 -5.06319,-5.1196c-2.80661,0 -5.06319,2.28478 -5.06319,5.1196zM302.12207,349.8945c0,-2.04502 1.5796,-3.70924 3.51179,-3.70924c1.93219,0 3.51179,1.66422 3.51179,3.70924c0,2.03092 -1.5796,3.69514 -3.51179,3.69514c-1.93219,0 -3.51179,-1.66422 -3.51179,-3.69514z" data-paper-data="{&quot;glyphName&quot;:&quot;O&quot;,&quot;glyphIndex&quot;:10,&quot;word&quot;:2}"></path><path d="M320.18372,354.81665h1.43857v-8.49036h2.43992v-1.38215h-6.3184v1.38215h2.43992z" data-paper-data="{&quot;glyphName&quot;:&quot;T&quot;,&quot;glyphIndex&quot;:11,&quot;word&quot;:2}"></path><path d="M331.58297,349.8945c0,2.82072 2.25657,5.1055 5.06319,5.1055c2.80661,0 5.06319,-2.28478 5.06319,-5.1055c0,-2.83482 -2.25657,-5.1196 -5.06319,-5.1196c-2.80661,0 -5.06319,2.28478 -5.06319,5.1196zM333.13437,349.8945c0,-2.04502 1.5796,-3.70924 3.51179,-3.70924c1.93219,0 3.51179,1.66422 3.51179,3.70924c0,2.03092 -1.5796,3.69514 -3.51179,3.69514c-1.93219,0 -3.51179,-1.66422 -3.51179,-3.69514z" data-paper-data="{&quot;glyphName&quot;:&quot;O&quot;,&quot;glyphIndex&quot;:12,&quot;word&quot;:2}"></path><path d="M356.60112,353.09602c-0.52183,0.32438 -1.11418,0.49363 -1.74884,0.49363c-1.93219,0 -3.51179,-1.66422 -3.51179,-3.69514c0,-2.04502 1.5796,-3.70924 3.51179,-3.70924c0.63466,0 1.22701,0.18335 1.74884,0.50773c0,-0.0141 0,-1.60781 0,-1.60781c-0.55004,-0.19745 -1.12829,-0.31028 -1.74884,-0.31028c-2.80661,0 -5.06319,2.28478 -5.06319,5.1196c0,2.82072 2.25657,5.1055 5.06319,5.1055c0.62056,0 1.1988,-0.11283 1.74884,-0.31028z" data-paper-data="{&quot;glyphName&quot;:&quot;C&quot;,&quot;glyphIndex&quot;:13,&quot;word&quot;:2}"></path><path d="M364.37751,349.8945c0,2.82072 2.25657,5.1055 5.06319,5.1055c2.80661,0 5.06319,-2.28478 5.06319,-5.1055c0,-2.83482 -2.25657,-5.1196 -5.06319,-5.1196c-2.80661,0 -5.06319,2.28478 -5.06319,5.1196zM365.92891,349.8945c0,-2.04502 1.5796,-3.70924 3.51179,-3.70924c1.93219,0 3.51179,1.66422 3.51179,3.70924c0,2.03092 -1.5796,3.69514 -3.51179,3.69514c-1.93219,0 -3.51179,-1.66422 -3.51179,-3.69514z" data-paper-data="{&quot;glyphName&quot;:&quot;O&quot;,&quot;glyphIndex&quot;:14,&quot;word&quot;:2}"></path><path d="M383.16824,354.81665h5.47219v-1.41036h-4.03362v-8.46215h-1.43857z" data-paper-data="{&quot;glyphName&quot;:&quot;L&quot;,&quot;glyphIndex&quot;:15,&quot;lastGlyphOfWord&quot;:true,&quot;word&quot;:2}"></path><path d="M124.11603,334.26628v-0.95904h301.76793v0.95904z" data-paper-data="{&quot;isContainerTopLineAboveSecondaryText&quot;:true}"></path></g><g data-paper-data="{&quot;isPrimaryText&quot;:true}" fill-rule="nonzero"><path d="M181.79653,325.26674v-3.73899l-0.81787,-0.11534c-0.27447,-0.03886 -1.05718,-0.21649 -1.61353,-0.56992v-36.38268c0.54894,-0.35342 1.31932,-0.53106 1.61291,-0.57362l0.81787,-0.11534v-3.74084h-16.25184l0.00308,3.73714l0.81293,0.11904c0.29544,0.04256 1.06705,0.22143 1.61599,0.57485v19.086h-14.67285v-19.08723c0.54894,-0.35342 1.31932,-0.53106 1.61291,-0.57362l0.81787,-0.11534v-3.74084h-2.71573l0.03207,-0.02837h-15.52403c-0.28681,-0.00678 -7.07707,-0.22513 -10.89686,3.45218c-1.6678,1.60551 -2.51343,3.6915 -2.51343,6.20122c0,4.75731 4.19603,8.77571 9.16244,8.77571c3.81732,0 5.96807,-1.38161 7.09989,-2.54118c0.73028,-0.74878 1.25085,-1.62093 1.53519,-2.55043v27.50335c-0.55018,0.34972 -1.32055,0.52674 -1.61414,0.5693l-0.81787,0.11472v3.74084h16.25184v-3.73961l-0.81848,-0.11534c-0.27447,-0.03886 -1.05718,-0.21649 -1.61353,-0.56992v-13.48923h14.67285v13.48923c-0.55018,0.34972 -1.32055,0.52674 -1.61414,0.5693l-0.81787,0.11472v3.74022zM141.3165,285.56634c0.38303,0.37131 0.59397,0.86844 0.59397,1.40012v3.26776c-0.32567,-0.85302 -0.95849,-1.53396 -1.83619,-1.94598c-1.57405,-0.74015 -3.64215,-0.43607 -5.14589,0.7531c-1.5426,1.22001 -1.27367,3.16784 -1.07753,4.5914c0.05551,0.40523 0.13693,0.99242 0.10362,1.26504c-0.06661,0 -0.16715,-0.00308 -0.31641,-0.02652c-1.23852,-0.20231 -2.2001,-1.33782 -2.23772,-2.6411c-0.1653,-5.89961 2.70031,-6.70761 5.90763,-7.0635c0.5841,-0.06476 1.45069,-0.11596 2.5751,-0.15296c0.0222,-0.00123 0.04379,-0.00123 0.066,-0.00123c0.51379,0 0.99735,0.19614 1.36743,0.55388z" data-paper-data="{&quot;glyphName&quot;:&quot;&quot;,&quot;glyphIndex&quot;:0,&quot;firstGlyphOfWord&quot;:true,&quot;word&quot;:1}"></path><path d="M198.4023,334.03621l16.40272,-33.85133c0.0171,-0.03515 1.7536,-3.57085 4.3878,-3.57085c0.52437,0 0.94995,-0.42558 0.94995,-0.94995v-2.03098c0,-0.52437 -0.42558,-0.94995 -0.94995,-0.94995h-10.5463c-0.52437,0 -0.94995,0.42558 -0.94995,0.94995v2.03098c0,0.42463 0.28213,0.79796 0.69061,0.91385c0.00855,0.00285 0.92715,0.29353 1.33562,1.07534c0.27833,0.53387 0.27548,1.22258 -0.01045,2.04998c-0.34673,1.00789 -2.01864,4.66423 -4.97677,10.87498l-6.86526,-12.84042c0.04465,-0.53767 0.17954,-0.9224 0.38188,-1.07534c0.10164,-0.076 0.22799,-0.09405 0.32583,-0.09405c0.11589,0 0.15199,0.01425 0.15199,0.01425c0.28783,0.0874 0.59942,0.0323 0.84165,-0.14629c0.24129,-0.17859 0.38378,-0.46167 0.38378,-0.76281v-2.04048c0,-0.52437 -0.42558,-0.94995 -0.94995,-0.94995h-15.30268c-0.52437,0 -0.94995,0.42558 -0.94995,0.94995v2.04143c0,0.47877 0.35718,0.8825 0.83215,0.94235c0.01235,0.00095 1.23018,0.24224 2.04618,2.33022c0.01425,0.0361 0.03135,0.0722 0.05035,0.10734l13.04941,24.00988c-1.64626,3.39891 -3.09397,6.35799 -3.99072,8.18758c-0.56807,1.16653 -1.63486,2.55536 -2.76624,3.45305c0.05225,-0.28973 0.07885,-0.58517 0.07885,-0.8825c0,-2.77954 -2.26087,-5.04041 -5.04041,-5.04041c-2.78049,0 -5.04136,2.26087 -5.04136,5.04041c0,2.77669 2.25897,5.03756 4.96727,5.03661c0.0019,0 0.0038,0 0.00475,0c0.0665,0.0057 0.41418,0.0285 0.9528,0.0285c2.35872,0 8.37757,-0.44837 10.5064,-4.85137z" data-paper-data="{&quot;glyphName&quot;:&quot;y&quot;,&quot;glyphIndex&quot;:1,&quot;word&quot;:1}"></path><path d="M237.24791,340.39664v-1.96756c0,-0.49652 -0.39043,-0.90977 -0.88571,-0.94801c-0.30099,-0.02282 -1.80597,-0.22389 -1.92932,-1.86456v-11.22006c1.88923,0.56807 4.24723,0.85487 7.03451,0.85487c9.85941,0 14.65188,-5.82375 14.65188,-17.80492c-0.00123,-9.78787 -7.61182,-14.91032 -15.12866,-14.91032c-2.37958,0 -4.64259,0.69759 -6.63853,2.03109c-0.13939,-0.44162 -0.43484,-0.8228 -0.84809,-1.06952c-0.58225,-0.34849 -1.28909,-0.36637 -1.89047,-0.04934c-1.75909,0.93012 -6.19814,3.09321 -9.40545,3.09321c-0.42867,0 -0.8043,0.28681 -0.91655,0.70191l-0.42929,1.58885c-0.12583,0.46383 0.11472,0.94924 0.56005,1.12873c0.02776,0.01172 2.68736,1.14106 2.68736,3.04078v32.32481c-0.01295,1.91699 -1.63635,2.13163 -1.954,2.15445c-0.50207,0.02837 -0.89681,0.44471 -0.89681,0.94924v1.96695c0,0.52489 0.42559,0.95048 0.95048,0.95048h14.08814c0.52489,0 0.95048,-0.42497 0.95048,-0.95109zM234.43287,319.65271v-16.60711c0.01542,-0.2239 0.02837,-0.92149 0.02405,-3.81979c0.82033,-0.84809 1.71345,-1.26134 2.71943,-1.26134c4.80172,0 7.39348,7.67535 7.39348,14.89675c0,6.9975 -4.98183,8.46978 -5.96252,8.46978c-1.12873,0 -2.73979,-0.29914 -4.17506,-1.67829z" data-paper-data="{&quot;glyphName&quot;:&quot;p&quot;,&quot;glyphIndex&quot;:2,&quot;word&quot;:1}"></path><path d="M275.75177,325.0558h0.12521c4.21885,-0.04688 9.44555,-2.49184 15.55363,-7.27012v1.25085c-0.01234,1.91514 -1.63758,2.13287 -1.95461,2.1563c-0.50268,0.02961 -0.8962,0.44594 -0.8962,0.94924v1.96325c0,0.52489 0.42559,0.95048 0.94986,0.95048h14.09245c0.52489,0 0.95048,-0.42559 0.95048,-0.95048v-1.96325c0,-0.49713 -0.3929,-0.91038 -0.88756,-0.94801c-0.30038,-0.02282 -1.80473,-0.22266 -1.92562,-1.86456v-8.93361c-0.00062,-1.59564 -0.00185,-2.8576 0.48171,-4.22317c0.9844,-2.42276 3.09198,-4.46804 4.60373,-4.46804c0.37316,0 0.41757,0.06785 0.70746,0.50392c0.44347,0.66922 1.11454,1.68014 3.23939,1.68014c1.09974,0 2.02123,-0.36267 2.7367,-1.07877c1.2453,-1.24592 1.50374,-3.20238 1.5025,-4.6247l-0.94986,-0.02282h0.94986c0,-3.63907 -2.05947,-5.81264 -5.50733,-5.81264c-3.28997,0 -5.90208,2.76631 -7.72716,5.63501c-0.00185,-0.12644 -0.00247,-0.25905 -0.00432,-0.39721c-0.00987,-0.80245 -0.02035,-1.61353 -0.02282,-2.24759c-0.00802,-0.76544 -0.40091,-1.45501 -1.05163,-1.84729c-0.6464,-0.38858 -1.43466,-0.41325 -2.10696,-0.06476c-2.10819,1.08987 -6.0902,2.91619 -9.08102,2.91619c-0.42929,0 -0.80553,0.28804 -0.91717,0.70314l-0.42867,1.59317c-0.12521,0.46321 0.11596,0.94801 0.56128,1.12749c0.02776,0.01049 2.68551,1.13798 2.68551,3.0377v8.77201c0,0.06476 0.00678,0.12829 0.01912,0.18997c-0.38549,0.3306 -0.77592,0.65072 -1.17129,0.95849l-0.14124,0.10917c-0.9733,0.7494 -1.98669,1.43342 -3.01179,2.03233c-3.18758,1.86086 -6.41772,2.84403 -9.34131,2.84403c-5.76947,0 -7.13751,-4.32556 -7.51314,-8.03494h10.27698c2.33024,0 4.48963,-1.16635 5.77564,-3.12035c1.26936,-1.92871 1.48585,-4.33728 0.57855,-6.44547c-2.18653,-5.05831 -6.31594,-7.73272 -11.9417,-7.73272c-10.24121,0 -15.76704,8.68813 -15.76704,16.8637c0,7.30898 4.12942,15.84291 15.76704,15.84291c0.29174,0 0.58348,-0.01049 0.79134,-0.02899zM272.13737,297.15339c0.60137,-0.60384 1.34337,-0.88386 2.2482,-0.87276c1.93241,0.00864 3.51695,0.97761 4.22749,2.56955c0.33739,0.81725 0.52797,1.76772 0.56745,2.82429c0.04934,1.50867 -0.28928,2.63308 -1.00599,3.34301c-0.95048,0.94061 -2.32407,0.89188 -2.37897,0.89065l-5.73308,-0.02467c-0.01295,-5.44874 1.10467,-7.75492 2.07489,-8.72945z" data-paper-data="{&quot;glyphName&quot;:&quot;&quot;,&quot;glyphIndex&quot;:3,&quot;word&quot;:1}"></path><path d="M339.13257,315.60484c0.0741,-0.28498 0.0114,-0.58802 -0.16814,-0.8198c-0.17954,-0.23179 -0.45692,-0.36858 -0.75141,-0.36858h-1.26818c-0.39328,0 -0.74666,0.24319 -0.88725,0.60987c-0.45407,1.17793 -2.09463,4.23391 -4.21491,4.23391c-0.80365,0 -1.72985,-1.97114 -1.86284,-6.26774v-18.54865h5.33585c0.52437,0 0.94995,-0.42558 0.94995,-0.94995v-1.64626c0,-0.52437 -0.42558,-0.94995 -0.94995,-0.94995h-5.33585v-4.26716c0,-0.65546 -0.37048,-1.23113 -0.96514,-1.50376c-0.59752,-0.27263 -1.27673,-0.17574 -1.77355,0.25649c-1.90939,1.65861 -6.69902,5.51539 -9.92124,5.51539c-0.52437,0 -0.94995,0.42558 -0.94995,0.94995v1.64626c0,0.52437 0.42558,0.94995 0.94995,0.94995c0.8996,0 1.93789,0.15484 2.33022,0.33343c-0.02185,3.19657 -0.14249,22.57547 0.00855,23.7686c0.25269,2.01674 1.60541,6.70567 8.70341,6.70567c8.17144,0 10.74484,-9.54791 10.77049,-9.64765z" data-paper-data="{&quot;glyphName&quot;:&quot;t&quot;,&quot;glyphIndex&quot;:4,&quot;word&quot;:1}"></path><path d="M370.15233,315.75335c0.29113,-0.72165 0.27262,-1.38655 -0.05551,-1.87381c-0.16222,-0.24055 -0.54524,-0.64516 -1.2965,-0.64516c-0.63715,0 -1.23605,0.38118 -1.66534,1.04423c-0.15111,0.21649 -0.25042,0.42374 -0.30963,0.54894c-0.01357,0.02529 -0.02591,0.05304 -0.03577,0.07957c-0.04564,0.11534 -1.19719,2.8175 -7.46688,2.8175c-5.76885,0 -7.13689,-4.32494 -7.51314,-8.03556h10.27575c2.33456,0 4.49579,-1.16759 5.78242,-3.1222c1.26627,-1.92686 1.48092,-4.33173 0.57238,-6.43499c-2.18591,-5.06448 -6.31409,-7.74135 -11.93985,-7.74135c-10.24121,0 -15.76704,8.68813 -15.76704,16.8637c0,7.30898 4.12942,15.84291 15.76704,15.84291c9.90814,0 13.46579,-8.86453 13.65206,-9.34378zM353.79132,296.63713c0.70684,-0.72411 1.5796,-1.07568 2.67132,-1.07568c2.7953,0 4.21269,4.86957 4.25339,6.12721c0.05243,1.50867 -0.28372,2.63308 -0.9992,3.34363c-0.94801,0.94061 -2.32222,0.89311 -2.37588,0.8925l-5.7374,-0.02097c-0.02652,-2.44743 0.12829,-7.15355 2.18776,-9.26668z" data-paper-data="{&quot;glyphName&quot;:&quot;e&quot;,&quot;glyphIndex&quot;:5,&quot;word&quot;:1}"></path><path d="M401.85164,324.42846v-2.04048c0,-0.45787 -0.35528,-0.8559 -0.80555,-0.93855c-0.0513,-0.0095 -1.25678,-0.25459 -2.07278,-2.33497c-0.0133,-0.0342 -0.0285,-0.06745 -0.04655,-0.10069l-7.40293,-13.84546l4.80958,-6.66102l1.16558,-1.61681h3.40366c0.52437,0 0.94995,-0.42558 0.94995,-0.94995v-2.32642c0,-0.52437 -0.42558,-0.94995 -0.94995,-0.94995h-9.83004c-0.52437,0 -0.94995,0.42558 -0.94995,0.94995v2.03098c0,0.28783 0.13109,0.55952 0.35433,0.74001c0.18049,0.14534 0.40848,0.21754 0.63361,0.20899c0.0475,0.04465 0.16244,0.18049 0.26978,0.52627l-2.40051,3.28871l-1.59591,-2.98568c0.04275,-0.53577 0.17764,-0.91955 0.37808,-1.07154c0.19094,-0.14439 0.47782,-0.07885 0.48162,-0.07885c0.28688,0.0874 0.60037,0.03325 0.84165,-0.14534c0.24224,-0.17954 0.38473,-0.46262 0.38473,-0.76376v-2.04048c0,-0.52437 -0.42558,-0.94995 -0.94995,-0.94995h-15.29888c-0.52437,0 -0.94995,0.42558 -0.94995,0.94995v2.04048c0,0.45787 0.35528,0.8559 0.80555,0.93855c0.0513,0.0095 1.25678,0.25459 2.07278,2.33497c0.0133,0.0342 0.0285,0.06745 0.04655,0.10069l6.34374,11.86483l-5.76427,7.8988c-0.02185,0.0304 -0.04275,0.06175 -0.0608,0.09404c-0.57187,0.83405 -2.36917,2.85269 -4.30231,2.85269c-0.52437,0 -0.94995,0.42558 -0.94995,0.94995v2.03193c0,0.52437 0.42558,0.94995 0.94995,0.94995h9.83099c0.52437,0 0.94995,-0.42558 0.94995,-0.94995v-2.03193c0,-0.28593 -0.12919,-0.55857 -0.35243,-0.73811c-0.18144,-0.14724 -0.41038,-0.21849 -0.63741,-0.21089c-0.10734,-0.09215 -0.34103,-0.47497 -0.44362,-1.37172l3.35901,-4.65189l2.33212,4.36025c0.25079,0.46927 0.28878,0.97939 0.10069,1.36602c-0.14439,0.29448 -0.37333,0.40468 -0.67066,0.32963c-0.28878,-0.08929 -0.60037,-0.0342 -0.8426,0.14534c-0.24224,0.17954 -0.38473,0.46262 -0.38473,0.76376v2.04048c0,0.52437 0.42558,0.94995 0.94995,0.94995h15.29888c0.52437,0 0.94995,-0.42558 0.949,-0.9528zM391.27494,296.57319h0.00095c-0.00095,0 -0.00095,0.00095 -0.00095,0z" data-paper-data="{&quot;glyphName&quot;:&quot;x&quot;,&quot;glyphIndex&quot;:6,&quot;word&quot;:1}"></path><path d="M425.85346,315.60484c0.0741,-0.28498 0.0114,-0.58802 -0.16814,-0.8198c-0.17954,-0.23179 -0.45692,-0.36858 -0.75141,-0.36858h-1.26818c-0.39328,0 -0.74666,0.24319 -0.88725,0.60987c-0.45407,1.17793 -2.09463,4.23391 -4.21491,4.23391c-0.80365,0 -1.72985,-1.97114 -1.86284,-6.26774v-18.54865h5.33585c0.52437,0 0.94995,-0.42558 0.94995,-0.94995v-1.64626c0,-0.52437 -0.42558,-0.94995 -0.94995,-0.94995h-5.33585v-4.26716c0,-0.65546 -0.37048,-1.23113 -0.96514,-1.50376c-0.59752,-0.27263 -1.27673,-0.17574 -1.77355,0.25649c-1.90939,1.65861 -6.69902,5.51539 -9.92124,5.51539c-0.52437,0 -0.94995,0.42558 -0.94995,0.94995v1.64626c0,0.52437 0.42558,0.94995 0.94995,0.94995c0.8996,0 1.93789,0.15484 2.33022,0.33343c-0.02185,3.19657 -0.14249,22.57547 0.00855,23.7686c0.25269,2.01674 1.60541,6.70567 8.70341,6.70567c8.17144,0 10.74484,-9.54791 10.77049,-9.64765z" data-paper-data="{&quot;glyphName&quot;:&quot;t&quot;,&quot;glyphIndex&quot;:7,&quot;lastGlyphOfWord&quot;:true,&quot;word&quot;:1}"></path></g><g data-paper-data="{&quot;isIcon&quot;:&quot;true&quot;,&quot;iconType&quot;:&quot;icon&quot;,&quot;rawIconId&quot;:&quot;1001593&quot;,&quot;selectedEffects&quot;:{&quot;container&quot;:&quot;&quot;,&quot;transformation&quot;:&quot;&quot;,&quot;pattern&quot;:&quot;&quot;},&quot;isDetailed&quot;:false,&quot;fillRule&quot;:&quot;evenodd&quot;,&quot;bounds&quot;:{&quot;x&quot;:207.26323436822204,&quot;y&quot;:115,&quot;width&quot;:135.47353126355594,&quot;height&quot;:135.47353803723323},&quot;iconStyle&quot;:&quot;standalone&quot;,&quot;suitableAsStandaloneIcon&quot;:true}" fill-rule="evenodd"><path d="M308.79709,148.93968l-33.79709,-33.93968l-33.79709,33.79709l2.85208,2.99468l30.94501,-31.08762l13.26215,13.40475l-30.94501,30.94501l2.85208,2.85208l31.08762,-30.94501l14.68818,14.83079zM322.20183,167.90598l14.83079,14.83079l-13.40475,13.26215l-32.37104,-32.37104l-17.68286,17.68286l2.85208,2.85208l14.83079,-14.68818l29.51897,29.51897l-45.77579,45.77579l-13.26215,-13.40475l30.94501,-30.94501l-2.85208,-2.85208l-31.08762,30.94501l-13.26215,-13.40475l16.25683,-16.11422l-17.68286,-17.68286l-2.85208,2.85208l14.68818,14.83079l-13.26215,13.26215l-29.66157,-29.51897l14.83079,-14.83079l-2.85208,-2.85208l-17.68286,17.68286l67.73677,67.73677l67.73677,-67.73677l-17.68286,-17.68286z" data-paper-data="{&quot;isPathIcon&quot;:true}"></path></g></g></g><g class="watermark-group" style="opacity:0.040000010281801224"><path class="watermark-path" d="M129.52,370.3a11.88,11.88,0,0,1,2.58,5.58,12,12,0,0,1,.11,3,11.81,11.81,0,0,1-.64,2.93,12.34,12.34,0,0,1-1.41,2.72,11.65,11.65,0,0,1-2.13,2.32,12,12,0,0,1-2.64,1.69,13,13,0,0,1-2.91.9,12.47,12.47,0,0,1-3,.12,12.17,12.17,0,0,1-2.93-.64,11.8,11.8,0,0,1-2.72-1.38,12.19,12.19,0,0,1-4-4.79,11.85,11.85,0,0,1-.89-2.92,12.14,12.14,0,0,1-.13-3,11.54,11.54,0,0,1,.64-2.92,11.67,11.67,0,0,1,3.5-5,11.44,11.44,0,0,1,2.67-1.69,11.64,11.64,0,0,1,2.92-.91,10.71,10.71,0,0,1,3-.12,11.68,11.68,0,0,1,5.66,2,11.7,11.7,0,0,1,2.34,2.12m-1.4,8.76a13,13,0,0,1-1.22,2.32,9.68,9.68,0,0,1-1.81,2,7.44,7.44,0,0,1-2.38,1.37,6.17,6.17,0,0,1-5.11-.46,8.73,8.73,0,0,1-3.85-4.58,6.69,6.69,0,0,1-.34-2.66,6.09,6.09,0,0,1,.77-2.47,7.15,7.15,0,0,1,1.75-2.11,9.58,9.58,0,0,1,1.09-.81,8.23,8.23,0,0,1,1.12-.63,8.14,8.14,0,0,1,1.19-.46,12.71,12.71,0,0,1,1.32-.37l2,2.38a12.83,12.83,0,0,0-1.56.17,7.86,7.86,0,0,0-1.23.32,4.5,4.5,0,0,0-1,.49,6.41,6.41,0,0,0-.93.67,4.49,4.49,0,0,0-1.15,1.39,3.87,3.87,0,0,0-.45,1.58,4.12,4.12,0,0,0,.26,1.63,6.11,6.11,0,0,0,2.36,2.82,4.43,4.43,0,0,0,1.57.53,3.91,3.91,0,0,0,1.62-.17,4.71,4.71,0,0,0,1.57-.89,10.5,10.5,0,0,0,.83-.79,5.71,5.71,0,0,0,.65-.93,10.13,10.13,0,0,0,.54-1.14,12.24,12.24,0,0,0,.44-1.49l2,2.33m-14.46,4.55a8.86,8.86,0,0,0,2.78,2.22,9,9,0,0,0,3.29.94,9.15,9.15,0,0,0,3.39-.37,8.68,8.68,0,0,0,3.11-1.69,8.8,8.8,0,0,0,2.22-2.78,9.15,9.15,0,0,0,1-3.29,8.95,8.95,0,0,0-4.83-8.76,9,9,0,0,0-6.73-.57,9,9,0,0,0-5.33,4.47,8.94,8.94,0,0,0-.57,6.71,8.76,8.76,0,0,0,1.7,3.12"></path><path class="watermark-path" d="M147,349c-.48.12-1.09.31-1.82.57a24.37,24.37,0,0,0-2.4,1A28.35,28.35,0,0,0,140,352a20.72,20.72,0,0,0-2.71,1.94c-.7.59-1.28,1.11-1.74,1.57a15.07,15.07,0,0,0-1.1,1.22,4.09,4.09,0,0,0-.59.92,2.32,2.32,0,0,0-.22.64,1.16,1.16,0,0,0,0,.47,1.83,1.83,0,0,0,.18.29,1.15,1.15,0,0,0,1,.37,5.54,5.54,0,0,0,1.51-.38q.87-.35,1.95-.9l2.26-1.18q1.2-.65,2.49-1.29c.87-.44,1.73-.83,2.59-1.17a18.94,18.94,0,0,1,2.6-.81,9.27,9.27,0,0,1,2.46-.29,6.25,6.25,0,0,1,2.24.49,5.12,5.12,0,0,1,1.89,1.47,6.35,6.35,0,0,1,1.41,2.61,6,6,0,0,1,.09,2.6,8.3,8.3,0,0,1-.9,2.52,17.79,17.79,0,0,1-1.62,2.37,23.92,23.92,0,0,1-2,2.15c-.72.67-1.41,1.29-2.09,1.87a33.79,33.79,0,0,1-5.33,3.7,32.29,32.29,0,0,1-4.91,2.28l-3.61-4.3a21.38,21.38,0,0,0,5.39-1.87,27.2,27.2,0,0,0,5.4-3.56,21.59,21.59,0,0,0,2.38-2.27,8.67,8.67,0,0,0,1.18-1.7,2.32,2.32,0,0,0,.27-1.19,1.34,1.34,0,0,0-.28-.74,1.21,1.21,0,0,0-1-.42,4.32,4.32,0,0,0-1.55.34,15.77,15.77,0,0,0-2,.88c-.72.37-1.48.77-2.27,1.21l-2.45,1.3c-.85.45-1.7.85-2.56,1.21a22.37,22.37,0,0,1-2.54.86,10,10,0,0,1-2.43.32,5.76,5.76,0,0,1-2.2-.45,5,5,0,0,1-1.89-1.45,6.12,6.12,0,0,1-1.31-2.41,6,6,0,0,1-.1-2.41,8.28,8.28,0,0,1,.81-2.38,14.06,14.06,0,0,1,1.49-2.24,22.37,22.37,0,0,1,1.85-2.05q1-1,2-1.77c.7-.59,1.44-1.15,2.23-1.7s1.62-1.06,2.44-1.53,1.63-.91,2.43-1.3,1.58-.75,2.3-1L147,349"></path><path class="watermark-path" d="M186.76,337.57l-10.6-12.63,3.92,18.24-4.66,3.91-17.27-7,10.6,12.63-4.86,4.07-15.09-18,6.59-5.54,18.69,7.52-4.15-19.71,6.57-5.52,15.09,18-4.83,4.05"></path><path class="watermark-path" d="M208.84,313.24l-10,8.42,1.16,4.82L194.56,331l-5.68-25.89,5.42-4.55,24.51,10.09-5.42,4.55-4.55-2m-11.23,3.45,6.57-5.52-8.83-3.87,2.26,9.39"></path><path class="watermark-path" d="M227.49,281.38c-.48.12-1.09.31-1.82.57a24.37,24.37,0,0,0-2.4,1,26.11,26.11,0,0,0-2.7,1.47,20.72,20.72,0,0,0-2.71,1.94c-.7.59-1.28,1.11-1.74,1.57a13.39,13.39,0,0,0-1.1,1.22,4.29,4.29,0,0,0-.59.91,2.48,2.48,0,0,0-.22.65,1.16,1.16,0,0,0,0,.47,1.83,1.83,0,0,0,.18.29,1.15,1.15,0,0,0,1,.37,5.54,5.54,0,0,0,1.51-.38q.87-.34,2-.9l2.26-1.18q1.2-.64,2.49-1.29c.87-.44,1.73-.83,2.59-1.17a18.94,18.94,0,0,1,2.6-.81,9.27,9.27,0,0,1,2.46-.29,6.08,6.08,0,0,1,2.24.49,5.09,5.09,0,0,1,1.89,1.46,6.47,6.47,0,0,1,1.41,2.61,6.07,6.07,0,0,1,.09,2.61,8.3,8.3,0,0,1-.9,2.52,16.32,16.32,0,0,1-1.63,2.36,21.41,21.41,0,0,1-2,2.16c-.72.67-1.41,1.29-2.1,1.86a33.36,33.36,0,0,1-5.32,3.71,31.92,31.92,0,0,1-4.92,2.28l-3.6-4.3a21.38,21.38,0,0,0,5.39-1.87,27.2,27.2,0,0,0,5.4-3.56,21.59,21.59,0,0,0,2.38-2.27,8.67,8.67,0,0,0,1.18-1.7A2.32,2.32,0,0,0,231,293a1.34,1.34,0,0,0-.28-.74,1.21,1.21,0,0,0-1-.42,4.32,4.32,0,0,0-1.55.34,16.54,16.54,0,0,0-2,.88c-.71.37-1.47.77-2.26,1.21l-2.46,1.3c-.84.44-1.7.85-2.55,1.21a24.53,24.53,0,0,1-2.54.86A10,10,0,0,1,214,298a5.76,5.76,0,0,1-2.2-.45,5,5,0,0,1-1.89-1.45,6.12,6.12,0,0,1-1.31-2.41,5.78,5.78,0,0,1-.1-2.41,8,8,0,0,1,.81-2.38,14.61,14.61,0,0,1,1.49-2.25,22.26,22.26,0,0,1,1.85-2q1-1,2-1.77c.7-.59,1.44-1.15,2.23-1.7s1.62-1.06,2.44-1.53,1.63-.91,2.43-1.31,1.58-.74,2.3-1l3.5,4.16"></path><path class="watermark-path" d="M261.64,274.74l-6.29-7.5L243,277.61l6.3,7.5-4.86,4.07-15.09-18,4.85-4.08,5.49,6.55L252,263.3l-5.49-6.55,4.86-4.07,15.09,18-4.86,4.08"></path><path class="watermark-path" d="M272.18,265.9l-15.09-18,4.86-4.08,15.09,18-4.86,4.08"></path><path class="watermark-path" d="M299.65,242.85l-22.51-2.18L287.51,253l-4.85,4.08-15.1-18,5.28-4.43,22.56,2.22L285,224.5l4.83-4.06,15.09,18-5.26,4.42"></path><path class="watermark-path" d="M306.68,205.52a31.88,31.88,0,0,1,5.29-3.66,34.48,34.48,0,0,1,5.14-2.35l3.69,4.39a20.77,20.77,0,0,0-2.37.61,20.47,20.47,0,0,0-2.61,1,25.12,25.12,0,0,0-2.76,1.49,23.9,23.9,0,0,0-2.8,2,20.42,20.42,0,0,0-2.8,2.77,12.77,12.77,0,0,0-1.64,2.52,7,7,0,0,0-.68,2.24,6,6,0,0,0,.66,3.64,8.16,8.16,0,0,0,.94,1.38,9.12,9.12,0,0,0,1.08,1.07,6.39,6.39,0,0,0,1.47.91,6.73,6.73,0,0,0,1.88.48,6.54,6.54,0,0,0,2.28-.18,11.67,11.67,0,0,0,2.74-1.07,19.38,19.38,0,0,0,3.18-2.22c.57-.48,1.06-.92,1.46-1.31a14.57,14.57,0,0,0,1-1.13,11.46,11.46,0,0,0,.81-1.05l.74-1.09-1.82-2.17-5.45,4.57-3.31-3.94,10.31-8.65,7.71,9.19a29,29,0,0,1-1.67,2.43q-1,1.26-2.1,2.52c-.74.84-1.5,1.65-2.3,2.44s-1.58,1.5-2.33,2.14a31,31,0,0,1-3.59,2.61,22.55,22.55,0,0,1-3.64,1.83,15.64,15.64,0,0,1-3.63.89,10.72,10.72,0,0,1-3.49-.15,10.45,10.45,0,0,1-3.28-1.33,12.54,12.54,0,0,1-3-2.67,12,12,0,0,1-2.08-3.44,10.45,10.45,0,0,1-.71-3.5,11.14,11.14,0,0,1,.51-3.51,15.72,15.72,0,0,1,1.56-3.43,21.62,21.62,0,0,1,2.42-3.28,30.3,30.3,0,0,1,3.15-3"></path><path class="watermark-path" d="M336.91,211.59l-15.1-18,4.86-4.08,11.79,14,13.13-11,3.31,3.94-18,15.1"></path><path class="watermark-path" d="M374.54,164.71a12.28,12.28,0,0,1,2.59,4.81,10.44,10.44,0,0,1,0,5,14.62,14.62,0,0,1-2.33,5,25.55,25.55,0,0,1-4.56,4.85,26.07,26.07,0,0,1-5.6,3.67,14.79,14.79,0,0,1-5.38,1.43,10.43,10.43,0,0,1-4.94-.89,13.24,13.24,0,0,1-6.87-8.18,10.48,10.48,0,0,1,0-5,14.51,14.51,0,0,1,2.36-5,25.23,25.23,0,0,1,4.57-4.89,25,25,0,0,1,5.59-3.64,14.45,14.45,0,0,1,5.35-1.43,10.31,10.31,0,0,1,4.93.92,12.22,12.22,0,0,1,4.28,3.38m-4.91,4.11a8.36,8.36,0,0,0-2-1.72,5.5,5.5,0,0,0-2.65-.85,7.72,7.72,0,0,0-3.32.57,14.49,14.49,0,0,0-4,2.52,16.72,16.72,0,0,0-2.38,2.4,10.15,10.15,0,0,0-1.39,2.24,6.71,6.71,0,0,0-.56,2.1,5.69,5.69,0,0,0,.1,1.9,6.21,6.21,0,0,0,.61,1.69,9.85,9.85,0,0,0,1,1.44,10.48,10.48,0,0,0,1.26,1.23,6.67,6.67,0,0,0,1.57.92,6.1,6.1,0,0,0,1.85.41,6.8,6.8,0,0,0,2.15-.2,11.06,11.06,0,0,0,2.45-1,17.67,17.67,0,0,0,2.77-1.94,14.39,14.39,0,0,0,3.18-3.52,7.74,7.74,0,0,0,1.14-3.17,5.54,5.54,0,0,0-.37-2.74,8.52,8.52,0,0,0-1.36-2.3"></path><path class="watermark-path" d="M382.66,141.76A32.3,32.3,0,0,1,388,138.1a34.12,34.12,0,0,1,5.15-2.35l3.69,4.4a19.62,19.62,0,0,0-2.37.6,22.08,22.08,0,0,0-2.61,1,26,26,0,0,0-2.77,1.49,23.9,23.9,0,0,0-2.8,2,21,21,0,0,0-2.8,2.78,13.19,13.19,0,0,0-1.64,2.51,7.29,7.29,0,0,0-.68,2.24,6.36,6.36,0,0,0,.06,2,5.8,5.8,0,0,0,.61,1.68,8.12,8.12,0,0,0,.93,1.38,9.16,9.16,0,0,0,1.08,1.08,6.56,6.56,0,0,0,1.48.9,6,6,0,0,0,1.87.48,6.76,6.76,0,0,0,2.28-.17,12,12,0,0,0,2.74-1.08,18.57,18.57,0,0,0,3.18-2.22c.58-.48,1.06-.92,1.46-1.31s.75-.77,1.05-1.12.57-.72.81-1.06l.73-1.09-1.82-2.17-5.45,4.57-3.3-3.94,10.3-8.65,7.71,9.19a29,29,0,0,1-1.67,2.43q-1,1.26-2.1,2.52c-.73.84-1.5,1.66-2.3,2.44s-1.57,1.5-2.33,2.14a31,31,0,0,1-3.59,2.61,22.15,22.15,0,0,1-3.64,1.83,15.56,15.56,0,0,1-3.62.89,11,11,0,0,1-3.49-.14,10.84,10.84,0,0,1-3.28-1.33,12.82,12.82,0,0,1-3-2.68,12.12,12.12,0,0,1-2.08-3.43A10.71,10.71,0,0,1,375,155a11.18,11.18,0,0,1,.51-3.51,15.51,15.51,0,0,1,1.57-3.43,21.44,21.44,0,0,1,2.42-3.28,30.19,30.19,0,0,1,3.14-3"></path><path class="watermark-path" d="M428.63,119.31a12.26,12.26,0,0,1,2.59,4.82,10.44,10.44,0,0,1,0,5,14.53,14.53,0,0,1-2.34,5,25.29,25.29,0,0,1-4.56,4.86,26,26,0,0,1-5.59,3.67,14.84,14.84,0,0,1-5.38,1.43,10.61,10.61,0,0,1-4.95-.89,12.15,12.15,0,0,1-4.3-3.37,12,12,0,0,1-2.56-4.81,10.48,10.48,0,0,1,0-5,14.39,14.39,0,0,1,2.35-5,27.89,27.89,0,0,1,10.16-8.53,14.49,14.49,0,0,1,5.36-1.43,10.27,10.27,0,0,1,4.92.92,12.21,12.21,0,0,1,4.28,3.37m-4.91,4.12a8.17,8.17,0,0,0-2-1.72,5.58,5.58,0,0,0-2.65-.86,7.86,7.86,0,0,0-3.31.58,14.49,14.49,0,0,0-4,2.52,16.21,16.21,0,0,0-2.38,2.4,9.85,9.85,0,0,0-1.4,2.24,7,7,0,0,0-.56,2.1,6,6,0,0,0,.1,1.9,6.23,6.23,0,0,0,.62,1.69,8.49,8.49,0,0,0,1,1.44,9.18,9.18,0,0,0,1.26,1.23,6.67,6.67,0,0,0,1.57.92,6,6,0,0,0,1.84.41,6.86,6.86,0,0,0,2.16-.2,11.26,11.26,0,0,0,2.45-1,17.62,17.62,0,0,0,2.76-1.94,14.67,14.67,0,0,0,3.19-3.52,7.71,7.71,0,0,0,1.13-3.17,5.53,5.53,0,0,0-.36-2.74,8.55,8.55,0,0,0-1.37-2.3"></path></g></svg>